<svg width="120" height="122" viewBox="0 0 120 122" fill="none" xmlns="http://www.w3.org/2000/svg">
<ellipse cx="60" cy="61" rx="60" ry="61" fill="white"/>
<path d="M52.3146 43.1003L49.452 59.6103H33.3798L36.2425 43.1003H25.8487L18.8326 83.5662L17 94.1332L29.2264 83.5662L31.9151 68.0421H47.9872L45.2918 83.5662H55.6856L62.7084 43.1003L64.541 32.5333L52.3146 43.1003Z" fill="url(#paint0_linear_104_3)"/>
<path d="M84.303 63.8545L69.9077 88.9283H84.303L100.908 63.8545H84.303Z" fill="url(#paint1_linear_104_3)"/>
<path d="M84.303 38.7806L68.4077 63.8545H84.303L100.908 38.7806H84.303Z" fill="url(#paint2_linear_104_3)"/>
<defs>
<linearGradient id="paint0_linear_104_3" x1="9.69767" y1="68.1881" x2="50.8617" y2="93.1201" gradientUnits="userSpaceOnUse">
<stop stop-color="#F49929"/>
<stop offset="0.308333" stop-color="#D90020" stop-opacity="0.79"/>
<stop offset="0.589583" stop-color="#AF0073" stop-opacity="0.7348"/>
<stop offset="0.959375" stop-color="#0217DA" stop-opacity="0.63"/>
</linearGradient>
<linearGradient id="paint1_linear_104_3" x1="85.4077" y1="63.8545" x2="85.4077" y2="88.9283" gradientUnits="userSpaceOnUse">
<stop stop-color="#AF0073" stop-opacity="0.63"/>
<stop offset="1" stop-color="#0217DA" stop-opacity="0.73"/>
</linearGradient>
<linearGradient id="paint2_linear_104_3" x1="84.6577" y1="38.7806" x2="84.6577" y2="63.8545" gradientUnits="userSpaceOnUse">
<stop stop-color="#F49929"/>
<stop offset="0.9999" stop-color="#D90220" stop-opacity="0.79"/>
<stop offset="1" stop-color="#D90020"/>
</linearGradient>
</defs>
</svg>
